<?xml version="1.0" encoding="utf-8"?>
<!-- Generator: Adobe Illustrator 14.0.0, SVG Export Plug-In . SVG Version: 6.00 Build 43363)  -->
<!DOCTYPE svg PUBLIC "-//W3C//DTD SVG 1.1//EN" "http://www.w3.org/Graphics/SVG/1.1/DTD/svg11.dtd">
<svg version="1.1" id="图层_1" xmlns="http://www.w3.org/2000/svg" xmlns:xlink="http://www.w3.org/1999/xlink" x="0px" y="0px"
	 width="1955px" height="1194px" viewBox="0 0 1955 1194" enable-background="new 0 0 1955 1194" xml:space="preserve">
<rect y="0" display="none" width="1955" height="1194"/>
<rect y="0" fill="#FFFFFF" stroke="#000000" width="1955" height="1194"/>
<g>
	<g>
		<g>
			
				<linearGradient id="SVGID_1_" gradientUnits="userSpaceOnUse" x1="3461.5918" y1="740.4626" x2="3839.3203" y2="-66.4478" gradientTransform="matrix(-1 0 0 -1 4510.5259 1194.0444)">
				<stop  offset="0" style="stop-color:#FFC444"/>
				<stop  offset="0.9964" style="stop-color:#F36F56"/>
			</linearGradient>
			<path fill="url(#SVGID_1_)" d="M990.332,420.866c0,0,63.645-110.197,149.709,77.204
				c67.021,145.926,23.703,308.27-131.342,352.815c-155.045,44.545-397.207-45.42-321.195-108.823
				C848.741,607.571,971.114,488.36,990.332,420.866z"/>
			<g opacity="0.35">
				
					<linearGradient id="SVGID_2_" gradientUnits="userSpaceOnUse" x1="3504.9551" y1="760.7625" x2="3882.6826" y2="-46.1461" gradientTransform="matrix(-1 0 0 -1 4510.5259 1194.0444)">
					<stop  offset="0" style="stop-color:#FF9085"/>
					<stop  offset="1" style="stop-color:#FB6FBB"/>
				</linearGradient>
				<path fill="url(#SVGID_2_)" d="M1064.229,520.174c4.238,13.44,11.52,51.094,9.609,94.819
					c-1.705,39.009,1.836,59.402-60.227,87.774c-21.27,9.725-35.981,40.584-68.553,58.943
					c-14.766,8.321-70.392,38.436-142.231,26.268c-47.532-8.052-82.924-31.366-106.758-53.091
					c156.979-131.544,275.387-247.732,294.263-314.021c0,0,23.256-40.232,60.65-30.708c-9.072,10.114-19.051,25.46-21.994,46.085
					C1024.82,465.435,1050.314,476.066,1064.229,520.174z"/>
			</g>
			<g opacity="0.13">
				
					<linearGradient id="SVGID_3_" gradientUnits="userSpaceOnUse" x1="3461.5918" y1="740.4617" x2="3839.321" y2="-66.4505" gradientTransform="matrix(-1 0 0 -1 4510.5259 1194.0444)">
					<stop  offset="0" style="stop-color:#FF9085"/>
					<stop  offset="1" style="stop-color:#FB6FBB"/>
				</linearGradient>
				<path fill="url(#SVGID_3_)" d="M760.542,806.557c73.325,40.489,195.788,65.203,287.025-2.563
					c84.48-62.744,92.006-167.823,94.822-199.893c4.922-56.045-6.027-104.848-21.814-144.211
					c6.346,11.089,12.838,23.745,19.469,38.179c67.02,145.926,23.701,308.27-131.344,352.815
					c-152.613,43.847-389.63-42.631-324.539-105.821C702.661,765.932,727.621,788.38,760.542,806.557z"/>
			</g>
		</g>
		<path fill="#FFA6A4" d="M876.057,818.334c2.173,0,4.35-0.024,6.558-0.075c35.992-0.804,69.323-8.147,99.065-21.827
			c37.186-17.104,68.82-44.21,94.039-80.564c21.299-30.71,33.799-65.723,37.15-104.06c2.684-30.648-0.443-63.478-9.293-97.573
			c-15.057-58.027-41.859-100.191-42.131-100.61c-0.225-0.352-0.691-0.456-1.047-0.228c-0.354,0.226-0.455,0.694-0.229,1.047
			c0.268,0.417,26.957,42.411,41.949,100.212c8.799,33.923,11.906,66.574,9.238,97.046c-3.334,38.061-15.744,72.815-36.887,103.301
			c-25.059,36.13-56.49,63.063-93.426,80.052c-29.555,13.594-62.684,20.891-98.467,21.688
			c-60.949,1.361-109.079-16.863-109.559-17.051c-0.388-0.151-0.831,0.046-0.979,0.438c-0.151,0.39,0.044,0.828,0.435,0.979
			C772.94,801.286,817.947,818.329,876.057,818.334z"/>
	</g>
	<g>
		<g>
			<g>
				
					<linearGradient id="SVGID_4_" gradientUnits="userSpaceOnUse" x1="1747.4443" y1="-1199.3557" x2="1802.6816" y2="-1199.3557" gradientTransform="matrix(-0.8018 -0.5976 0.5976 -0.8018 2679.1592 933.8716)">
					<stop  offset="0" style="stop-color:#40447E"/>
					<stop  offset="0.9964" style="stop-color:#3C3B6B"/>
				</linearGradient>
				<path fill="url(#SVGID_4_)" d="M559.746,853.306c2.132-3.596,4.315-17.563-5.346-18.237
					c-9.717-0.679-15.526-2.946-30.297-10.301c-14.773-7.354-16.125,2.008,5.204,14.531
					C550.634,851.822,556.717,858.424,559.746,853.306z"/>
				
					<linearGradient id="SVGID_5_" gradientUnits="userSpaceOnUse" x1="4567.5723" y1="1556.157" x2="5012.1177" y2="1094.8362" gradientTransform="matrix(-0.9517 0.307 -0.307 -0.9517 5451.7925 778.0913)">
					<stop  offset="0" style="stop-color:#FFC444"/>
					<stop  offset="0.9964" style="stop-color:#F36F56"/>
				</linearGradient>
				<path fill="url(#SVGID_5_)" d="M567.567,831.906l-6.065,8.16c-1.267,1.704-3.503,2.374-5.497,1.646
					c-0.933-0.341-1.646-1.102-1.924-2.052c-0.279-0.948-0.092-1.976,0.508-2.764l8.908-11.736L567.567,831.906z"/>
			</g>
			<g>
				<path fill="#2C6BED" d="M922.979,645.963c26.129,14.466-6.003,87.485-83.648,82.938
					c-94.092-5.511-204.498,30.117-267.106,108.554c-5.263-2.967-17.529-6.753-13.628-12.892
					c53.62-84.393,108.596-138.092,158.979-160.238C793.75,630.844,848.579,604.774,922.979,645.963z"/>
				<g opacity="0.24">
					<path fill="#552D63" d="M671.347,728.26c-11.245,10.278-17.291-4.334-26.104-12.899c24.699-23.687,49.011-40.785,72.333-51.036
						c76.173-33.48,131.002-59.55,205.403-18.361c26.128,14.465-6.003,87.485-83.648,82.938
						c-28.081-1.645-57.611,0.459-86.896,6.188C725.784,725.433,699.249,695.763,671.347,728.26z"/>
				</g>
			</g>
		</g>
		<g>
			
				<linearGradient id="SVGID_6_" gradientUnits="userSpaceOnUse" x1="3458.9844" y1="-67.2004" x2="3514.166" y2="-67.2004" gradientTransform="matrix(-0.9852 -0.1716 0.1716 -0.9852 4078.9353 1210.2747)">
				<stop  offset="0" style="stop-color:#40447E"/>
				<stop  offset="0.9964" style="stop-color:#3C3B6B"/>
			</linearGradient>
			<path fill="url(#SVGID_6_)" d="M659.755,681.961c0.327-4.923,2.166-10.679-9.166-12.127c-8.226-1.053-21.683,0.957-33.874,2.956
				c-17.084,2.803-18.775,13.756,7.313,14.824C641.116,688.315,659.29,688.955,659.755,681.961z"/>
			
				<linearGradient id="SVGID_7_" gradientUnits="userSpaceOnUse" x1="4275.7529" y1="1014.5339" x2="4831.5884" y2="437.7234" gradientTransform="matrix(-0.9884 0.152 -0.152 -0.9884 5044.9224 1008.826)">
				<stop  offset="0" style="stop-color:#FFC444"/>
				<stop  offset="0.9964" style="stop-color:#F36F56"/>
			</linearGradient>
			<path fill="url(#SVGID_7_)" d="M645.051,677.728c0.403,2.625,2.496,4.302,4.717,4.141c5.153-0.369,3.657-2.739,3.253-5.365
				c-0.404-2.627,1.228-4.864-4.717-4.143C646.092,672.631,644.647,675.103,645.051,677.728z"/>
			<path fill="#2C6BED" d="M708.999,643.041l-6.775,0.392c0,0-12.505,3.965-45.574,21.3c-7.259,2.885-12.752,27.091,9.499,23.163
				c22.251-3.93,52.672,6.671,52.672,6.671L708.999,643.041z"/>
			<path fill="#2C6BED" d="M779.292,648.516c42.352,9.259,104.076,6.546,116.683,5.79c16.14-0.968,65.103,26.729,64.306,41.249
				c-0.653,3.308-1.979,8.051-4.936,12.996c-6.821,11.405-20.209,20.32-51.45,25.306c-41.953,6.693-82.908,1-110.303-4.833
				c-40.48-13.748-101.179-42.573-104.598-60.051C681.899,632.687,729.115,637.55,779.292,648.516z"/>
			<g opacity="0.2">
				
					<linearGradient id="SVGID_8_" gradientUnits="userSpaceOnUse" x1="3978.6875" y1="955.7195" x2="4227.4004" y2="1008.8763" gradientTransform="matrix(-0.9884 0.152 -0.152 -0.9884 5044.9224 1008.826)">
					<stop  offset="0" style="stop-color:#311944"/>
					<stop  offset="1" style="stop-color:#6B3976"/>
				</linearGradient>
				<path fill="url(#SVGID_8_)" d="M865.752,678.653c-31.373,3.538-43.05-16.992-82.627-15.067
					c-25.649,1.246-32.803,10.455-47.255,4.743c-11.408-4.509-19.019-15.034-24.209-27.137c17.239-2.241,42.025,1.728,67.63,7.324
					c41.135,8.993,100.544,6.69,115.477,5.86c0.439-0.025,9.366-5.587,9.366-5.587s8.095,2.553,13.965,4.681
					C900.317,668.625,877.211,677.362,865.752,678.653z"/>
			</g>
		</g>
		<g>
			<path d="M950.202,708.847l4.967,0.023c0,0,17.325-22.799,20.998-30.938c4.482-9.935-65.872-26.588-95.25-50.102
				c-30.868-24.709,2.618,36.723,2.618,36.723L950.202,708.847z"/>
		</g>
		<g>
			<path fill="#FFFFFF" stroke="#000000" stroke-width="3" d="M886.012,463.52c0,0-35.729,20.557-56.861,75.762
				c-15.887,41.506-57.657,21.229-57.657,21.229l-8.278,17.795l37.862,12.717l82.442,25.291l-16.97-107.362L886.012,463.52z"/>
			<g>
				<path fill="#FFFFFF" stroke="#000000" stroke-width="3" d="M907.091,457.523c0,0,91.87-44.078,113.545,24.928
					c20.771,66.141,14.145,94.039-23.873,169.273c-3.822,7.564-13.23,10.974-13.645,12.012c-2.217,5.585-4.422,11.364-6.593,17.362
					c-69.58-30.856-133.88-26.558-133.88-26.558c33.37-67.477,30.635-109.918,21.087-136.659
					c-4.79-13.414-1.416-32.742,7.051-46.427C879.317,457.663,888.947,456.528,907.091,457.523z"/>
				<g opacity="0.25">
					
						<linearGradient id="SVGID_9_" gradientUnits="userSpaceOnUse" x1="4271.6875" y1="1443.2498" x2="4228.3262" y2="1612.8409" gradientTransform="matrix(-0.9593 0.2823 -0.2823 -0.9593 5446.3081 840.0572)">
						<stop  offset="0" style="stop-color:#AA80F9"/>
						<stop  offset="0.9964" style="stop-color:#6165D7"/>
					</linearGradient>
					<path fill="url(#SVGID_9_)" d="M886.861,597.998c3.413-3.99,20.897-24.44,46.07-32.095c8.788-2.672,15.077-2.74,26.281-8.285
						c11.251-5.565,15.013-10.497,16.591-12.909c4.115-6.285,2.016-10.646,5.314-17.883c3.607-7.917,6.629-0.313,12.613-16.111
						c3.66-9.66,6.777-22,7.344-37.405c3.135,3.143,6.242,6.626,9.303,10.537c42.73,54.591,24.404,92.645-13.615,167.879
						c-3.822,7.564-13.23,10.974-13.643,12.012c-2.217,5.585-4.422,11.364-6.594,17.362c-69.58-30.857-133.88-26.557-133.88-26.557
						s2.591-20.759,5.506-49.681c4.699,6.222,11.702,13.495,19.381,12.779C874.995,616.946,877.238,609.254,886.861,597.998z"/>
				</g>
			</g>
			<path d="M931.225,610.939c0,0-6.34,2.634-11.589,2.446c-5.25-0.188-5.024-0.746-10.54,0.494
				c-5.36,1.204-16.555,1.815-12.724-5.449c4.266-8.089,15.758-10.416,20.28-7.708c4.361,2.607,10.447,3.063,10.447,3.063
				L931.225,610.939z"/>
			<path fill="#FFFFFF" stroke="#000000" stroke-width="3" d="M955.336,464.558c0,0,23.533-67.827,98.39,54.038
				c61.207,99.646-103.704,135.039-121.794,101.601c-7.326-7.21-6.099-17.915-6.099-17.915s5.189-13.084,12.874-16.312
				c29.721-12.485,71.671-2.736,57.81-36.301C980.809,511.629,934.952,472.651,955.336,464.558z"/>
			<path fill="#AE87F9" d="M979.34,662.186c0.104,0,0.197-0.063,0.238-0.163c0.059-0.13-0.008-0.284-0.141-0.337
				c-0.729-0.297-73.415-29.56-127.317-23.73c-0.142,0.017-0.245,0.146-0.229,0.286c0.014,0.144,0.146,0.241,0.285,0.229
				c53.787-5.809,126.338,23.399,127.065,23.696C979.273,662.179,979.309,662.186,979.34,662.186z"/>
		</g>
		<g>
			<path fill="#26264F" d="M915.879,644.182c0.523,0.063,1.011,0.431,1.153,0.923c0.021,0.073-0.123,2.67-0.116,2.747
				c0.066,0.602-0.291,1.169-0.862,1.369l-48.272,16.894l-91.681-33.537l43.254,2.326L915.879,644.182z"/>
			<path fill="#444B8C" d="M915.893,643.832c0.6,0.072,1.07,0.552,1.137,1.151c0.064,0.603-0.293,1.168-0.865,1.369l-48.271,16.894
				l-91.682-33.537l43.254,2.326L915.893,643.832z"/>
			
				<linearGradient id="SVGID_10_" gradientUnits="userSpaceOnUse" x1="3794.1914" y1="462.677" x2="3923.4512" y2="462.677" gradientTransform="matrix(-0.9993 -0.0386 0.0386 -0.9993 4645.7568 1218.197)">
				<stop  offset="0" style="stop-color:#40447E"/>
				<stop  offset="0.9964" style="stop-color:#3C3B6B"/>
			</linearGradient>
			<path fill="url(#SVGID_10_)" d="M870.029,662.488l-9.386-94.636c-0.15-1.519-1.324-2.73-2.834-2.935l-109.214-14.573
				c-0.979-0.131-1.964,0.185-2.684,0.859c-0.719,0.676-1.098,1.638-1.028,2.621l6.08,88.269c0.104,1.522,1.245,2.772,2.753,3.018
				l113.53,18.378L870.029,662.488z"/>
			<path fill="#26264F" d="M867.782,666.115l-9.661-96.72c-0.15-1.516-1.323-2.729-2.833-2.931L746.07,551.888
				c-0.977-0.131-1.961,0.187-2.682,0.859c-0.719,0.676-1.097,1.64-1.03,2.623l6.082,88.278c0.104,1.519,1.237,2.765,2.737,3.015
				L867.782,666.115z"/>
			<path fill="#1F1F44" d="M867.782,666.115l-116.604-19.45c-1.5-0.25-2.633-1.497-2.737-3.015l-1.834-26.624
				c35.03,18.861,78.432,20.38,119.004,27.347L867.782,666.115z"/>
		</g>
		<g>
			<path fill="#FFFFFF" stroke="#000000" stroke-width="3" d="M921.063,411.718c-0.204,4.276-1.045,27.186,8.964,31.393
				c2.17,0.912,6.064,0.997,13.854,1.165c5.1,0.111,9.343-0.006,12.328-0.139c0.19,3.787-0.063,10.043-3.444,16.254
				c-9.479,17.411-34.246,17.397-37.789,17.34c-12.491-0.207-21.914-5.314-25.174-7.128c-4.962-2.763-8.658-5.81-11.138-8.131
				c4.318-3.043,9.49-6.257,15.524-9.265c4.511-2.245,8.8-4.024,12.734-5.443c-0.041-4.393-0.079-8.784-0.12-13.176
				C911.558,426.965,916.31,419.341,921.063,411.718z"/>
			<path opacity="0.23" fill="#1F1F44" enable-background="new    " d="M908.05,461.759c-0.874,0.664-6.323,4.65-13.613,3.262
				c-5.925-1.128-9.297-5.091-10.179-6.2c3.029-1.894,6.268-3.788,9.932-5.614c4.511-2.245,8.8-4.025,12.734-5.443
				c-0.041-4.393-0.079-8.784-0.12-13.177c1.466-2.35,2.93-4.698,4.394-7.049c6.481,5.342,9.4,13.66,7.447,21.271
				C916.479,457.249,909.272,461.127,908.05,461.759z"/>
			<path d="M883.663,413.219c-12.026-6.095-13.583-35.802-4.688-40.603c4.563-2.464,7.787,3.845,20.019,4.862
				c14.154,1.178,20.94-6.347,26.311-2.002c4.319,3.495,4.283,11.888,3.719,15.729c-0.43,2.919-1.92,8.343-2.521,12.169
				c-0.375,2.404-0.551,3.607-0.664,4.429c-0.18,1.287-0.206,1.599-0.389,2.586c-0.724,3.964-2.471,10.894-7.276,20.274
				c-1.458-1.93-3.408-4.257-5.926-6.605c-0.968-0.903-4.808-4.411-9.327-6.741C893.912,412.677,889.065,415.956,883.663,413.219z"
				/>
			<path fill="#FFFFFF" stroke="#000000" stroke-width="3" d="M925.131,420.359c0,0-2.178,15.511-17.495,20.98
				c-13.716,4.896-28.6-24.175-22.821-34.205c1.926-3.348,7.24-6.687,12.43-7.39c3.065-0.416,4.482,0.32,9.478-0.456
				c4.607-0.716,5.579-1.681,7.283-1.169c2.135,0.642,4.676,3.373,5.844,13.248c1.431-3.677,4.058-5.987,6.665-5.899
				c0.416,0.014,1.602,0.24,2.523,0.962C932.379,409.042,931.146,414.755,925.131,420.359z"/>
		</g>
	</g>
</g>
<g>
	<path d="M1370.26,438.347c15.566,3.698,37.111,8.814,41.76,1.081c4.891-8.136-11.805-25.673-8.24-28.889
		c2.83-2.553,12.494,9.25,25.012,7.228c6.777-1.095,14.691-6.291,15.734-12.811c1.57-9.811-13.609-15.152-12.09-25.906
		c0.701-4.962,4.871-10.474,9.813-11.389c10.547-1.954,15.133,18.76,32.051,22.247c10.631,2.19,23.236-3.017,29.859-11.218
		c11.012-13.64,1.713-30.899,10.385-36.39c7.002-4.435,15.682,5.181,30.725,8.68c23.379,5.434,51.354-6.416,66.787-24.319
		c20.844-24.181,21.76-62.834,6.906-86.354c-33.211-52.59-154.756-44.584-185.375,2.877c-9.729,15.081-23.605,54.806-29.936,89.81
		c-1.789,9.891-3.566,22.671-13.818,31.088c-13.172,10.816-25.91,2.579-43.178,12.666c-14.201,8.297-27.119,26.452-23.027,39.725
		C1327.221,428.125,1342.617,431.782,1370.26,438.347z"/>
	<path d="M1539.377,498.168c-0.49,2.959,42.857,52.252,49.967,75.966l-82.943,25.161c0,0-51.348-37.721-67.688-37.721
		L1539.377,498.168z"/>
	<path fill="#FFFFFF" stroke="#000000" stroke-width="3" d="M1538.959,491.081c1.445,0.039,17.197,25.015,18.348,31.347
		c0,0-68.465,34.623-82.016,55.885l-49.002-20.031C1426.289,558.281,1507.943,490.247,1538.959,491.081z"/>
	<path fill="#FFFFFF" stroke="#000000" stroke-width="3" d="M1595.977,584.299c0,0-12.383-30.565-20.059-35.567
		c-7.672-5.001-52.938,11.106-81.256,43.064l13.559,11.221L1595.977,584.299z"/>
	<path d="M1702.289,338.778c0,0,20.307-5.933,32.365-2.966c12.057,2.966,7.67,18.026,5.547,22.587
		c-2.125,4.56-31.637-5.436-31.637-5.436L1702.289,338.778z"/>
	<path d="M1249.229,497.14c0.977-9.401,0.525-16.998-0.107-22.309c-0.932-7.825-2.318-11.167-4.857-12.147
		c-1.967-0.762-3.998,0.138-4.617,0.413c-6.855,3.033-8.674,14.94-8.053,22.516c0.742,9.031,5.258,15.598,8.053,18.968
		C1242.84,502.101,1246.031,499.621,1249.229,497.14z"/>
	<path fill="#FFFFFF" stroke="#000000" stroke-width="3" d="M1704.688,331.295c3.629,9.328,7.262,18.656,10.891,27.983
		c-12.885,9.479-32.391,20.796-57.523,23.83c-26.418,3.189-34.145-5.779-54.854,1.204c-22.549,7.599-20.938,20.77-51.648,37.945
		c-24.266,13.568-37.439,12.153-38.635,20.254c-1.559,10.575,20.137,18.192,49.57,52.283c11.1,12.851,12.734,17.234,11.514,20.726
		c-3.871,11.082-31.848-0.294-61.021,12.089c-39.109,16.602-47.711,62.041-66.781,58.146c-3.887-0.792-4.824-2.945-17.848-17.848
		c-11.988-13.723-22.275-24.581-29.379-31.886c-9.953,4.606-22.4,11.591-34.928,22.31c-27.273,23.337-30.016,43.066-56.014,55.057
		c-8.363,3.855-21.563,9.943-33.586,4.82c-7.354-3.131-14.521-10.56-26.906-56.984c-5.834-21.879-9.629-40.424-12.066-53.812
		c6.145-4.591,12.295-9.18,18.441-13.771c7.441,8.112,17.434,21.085,23.604,39.148c6.596,19.306,4.268,31.076,10.938,33.967
		c8.275,3.582,19.475-11.217,45.988-36.519c36.201-34.544,43.141-33.505,66.273-59.624c21.359-24.117,20.615-30.843,34.543-47.208
		c8.135-9.561,33.188-36.409,151.504-67.568C1615.68,348.224,1655.799,338.867,1704.688,331.295z"/>
	<path opacity="0.23" fill="#1F1F44" enable-background="new    " d="M1515.496,497.678c3.227-22.519-56.525-40.802-52.604-59.879
		c2.076-10.104,19.914-10.226,49.51-21.302c54.051-20.229,48.785-40.117,88.082-50.663c42.451-11.391,63.051,7.942,93.84-10.938
		c5.807-3.562,10.705-7.712,14.859-12.048c2.131,5.477,4.262,10.953,6.395,16.428c-12.885,9.479-32.391,20.796-57.523,23.83
		c-26.418,3.189-34.145-5.779-54.855,1.204c-22.549,7.599-20.938,20.77-51.648,37.945c-24.266,13.568-37.439,12.153-38.633,20.254
		c-1.561,10.575,20.137,18.192,49.57,52.283c11.098,12.851,12.734,17.234,11.514,20.726c-3.871,11.082-31.848-0.294-61.021,12.089
		c-39.111,16.602-47.711,62.041-66.781,58.146c-0.355-0.072-0.684-0.157-1.002-0.261c0.443-15.305,3.945-32.21,14.818-46.372
		C1480.568,512.348,1513.154,514.014,1515.496,497.678z"/>
	<path opacity="0.23" fill="#1F1F44" enable-background="new    " d="M1282.121,608.783c15.76-0.605,20.1-21.111,55.27-50.662
		c14.02-11.78,44.154-37.327,58.826-28.197c1.354,0.842,4.924,3.408,7.199,10.708c-1.592-1.663-3.078-3.203-4.445-4.608
		c-9.953,4.606-22.4,11.591-34.928,22.31c-27.273,23.337-30.016,43.066-56.014,55.057c-8.363,3.856-21.561,9.943-33.586,4.82
		c-5.08-2.163-10.072-6.386-16.756-24.092C1267.684,606.104,1275.854,609.022,1282.121,608.783z"/>
	<path fill="#FFFFFF" stroke="#000000" stroke-width="3" d="M1376.049,430.815c0,0,29.982,22.671,50.24,4.535
		c0,0,7.043,33.279-36.342,55.73c0,0,16.219-15.037-19.34-37.536L1376.049,430.815z"/>
	<path fill="#FFFFFF" stroke="#000000" stroke-width="3" d="M1337.746,412.501c0,0,0.813,32.571,13.684,48.563
		c1.813,2.254,4.814,3.202,7.578,2.335c6.959-2.186,20.063-8.627,23.053-26.527c0,0,6.916-9.558,5.928-13.738
		c-0.992-4.181-8.408-2.662-10.793,2.611c-2.385,5.274-5.623-4.076-4.566-5.837C1373.684,418.148,1364.146,400.009,1337.746,412.501
		z"/>
	<path fill="#5479F7" d="M1590.121,580.575c59.021,22.719,66.563,42.131,67.934,49.507c0.256,1.373,1.598,9.313,2.77,19.569
		c2.262,19.822,1.1,23.799,3.451,30.626c4.063,11.787,12.799,15.209,23.357,24.33c30.506,26.356,21.166,52.745,48.811,71.967
		c13.027,9.062,24.033,9.41,32.721,11.825c27.16,7.552,59.803,43.1,82.326,168.105c-5.566,6.333-11.131,12.666-16.693,18.997
		c-28.869-64.757-64.436-103.457-91.008-126.607c-53.998-47.047-96.523-52.229-148.484-105.399
		c-35.049-35.862-54.738-73.446-65.631-98.442C1549.822,623.557,1569.975,602.066,1590.121,580.575z"/>
	<path opacity="0.23" fill="#1F1F44" enable-background="new    " d="M1568.207,603.947c41.279,5.899,55.645,19.619,61.063,31.317
		c8.389,18.111-4.656,31.342-1.15,67.932c0.689,7.187,3.969,41.407,23.027,65.63c28.248,35.905,70.338,23.384,104.777,43.179
		c23.156,13.311,47.064,43.655,54.727,117.208c-22.994-37.922-47.352-63.32-66.861-80.317
		c-53.998-47.047-96.523-52.229-148.484-105.399c-35.049-35.862-54.738-73.446-65.631-98.442
		C1542.52,631.348,1555.363,617.648,1568.207,603.947z"/>
	<path fill="#5479F7" d="M1601.338,585.109c18.102,9.311,35.547,30.456,33.988,53.217c-1.43,20.944-18.584,37.935-34.939,45.677
		c-28.631,13.555-47.068-4.898-105.824-5.188c-34.135-0.17-65.121,5.873-65.637,12.869c-0.488,6.66,27.215,6.135,43.752,28.208
		c6.268,8.365,8.146,16.254,12.668,48.361c2.432,17.264,5.281,39.068,8.059,64.479c-3.607,4.025-7.217,8.051-10.826,12.077
		c-33.025-37.2-82.523-96.32-118.295-156.038c-5.299-8.847-12.236-20.945-8.664-33.481c6.939-24.362,45.904-23.552,123.648-45.77
		C1554.33,588.065,1574.316,571.217,1601.338,585.109z"/>
	<g>
		<path d="M1854.354,943.131c0,0,8.658,5.347,12.037,5.213c3.383-0.132,15.467-2.335,13.959,9.206
			c-1.508,11.544-11.096,60.388-16.137,72.229c-5.043,11.842-8.531,15.256-21.127,13.217c-5.27-0.854,3.371-13.833,2.025-20.97
			c-1.344-7.134-16.441-51.677-16.441-51.677s12.777-14.414,13.936-18.989C1843.76,946.785,1846.365,937.921,1854.354,943.131z"/>
		<path fill="#B2B8C1" d="M1859.463,1008.666V971.09c0-6.126,1.418-12.167,4.141-17.65l2.535-5.108
			c0.084,0.003,0.176,0.018,0.252,0.014c3.383-0.134,20.217-6.805,16.764,10.465c-2.285,11.414-12.807,62.229-17.848,74.075
			c-5.041,11.842-11.344,13.107-23.941,11.069c-2.234-0.361-0.246-3.865,0.701-7.221l6.578-5.342
			C1855.486,1025.834,1859.463,1017.484,1859.463,1008.666z"/>
	</g>
	<g>
		<path d="M1502.236,820.838c0,0,8.117,5.011,11.287,4.886c3.168-0.125,14.5-2.188,13.086,8.633
			c-1.414,10.823-10.404,56.617-15.131,67.72c-4.727,11.105-7.998,14.306-19.807,12.395c-4.941-0.799,3.16-12.973,1.898-19.661
			c-1.26-6.688-15.416-48.451-15.416-48.451s11.98-13.517,13.064-17.805C1492.303,824.262,1494.748,815.953,1502.236,820.838z"/>
		<path fill="#FFFFFF" d="M1507.023,882.281V847.05c0-5.741,1.332-11.407,3.885-16.55l2.377-4.789
			c0.078,0.005,0.166,0.018,0.238,0.013c3.168-0.125,18.955-6.38,15.715,9.813c-2.143,10.702-12.008,58.348-16.732,69.452
			c-4.727,11.104-10.637,12.291-22.447,10.38c-2.094-0.339-0.229-3.625,0.658-6.77l6.166-5.009
			C1503.301,898.377,1507.023,890.55,1507.023,882.281z"/>
	</g>
</g>
<g>
	<g>
		<path fill="#FFFFFF" d="M351.311,813.203c0,0-116.585,16.979-178.838-26.032c-62.255-43.013,113.809-276.356,113.809-276.356
			L351.311,813.203z"/>
		<path d="M171.19,789.021c-7.354-5.079-11.924-12.864-13.58-23.143c-11.599-71.901,121.213-248.924,126.873-256.423
			c0.531-0.703,1.423-1.027,2.283-0.843c0.861,0.19,1.532,0.865,1.718,1.728l65.029,302.389c0.132,0.61,0.004,1.246-0.353,1.76
			c-0.355,0.514-0.91,0.854-1.526,0.943c-2.071,0.303-24.425,3.445-54.169,3.445C258.385,818.879,206.548,813.45,171.19,789.021z
			 M285.126,516.156C265.183,543.26,151.703,700.952,162.06,765.162c1.456,9.018,5.388,15.797,11.694,20.151
			c55.923,38.64,157.933,28.05,174.84,25.972L285.126,516.156z"/>
	</g>
	<g>
		<g>
			<g>
				<path fill="#FFFFFF" d="M372.519,940.457l12.535,47.533c2.506,9.501,3.167,19.395,1.949,29.145l-2.512,20.08l63.315-10.33
					l-8.181-6.027c-14.205-10.464-24.239-25.63-28.319-42.797l-10.896-45.856L372.519,940.457z"/>
				<path d="M382.928,1038.839c-0.51-0.493-0.76-1.198-0.672-1.903l2.51-20.079c1.188-9.509,0.553-19.026-1.891-28.292
					l-12.535-47.532c-0.313-1.177,0.371-2.391,1.539-2.736l27.896-8.251c0.594-0.174,1.232-0.101,1.769,0.211
					c0.534,0.311,0.92,0.824,1.062,1.43l10.896,45.857c3.949,16.625,13.702,31.363,27.462,41.5l8.18,6.026
					c0.73,0.538,1.066,1.463,0.855,2.345c-0.213,0.882-0.936,1.549-1.828,1.693l-63.315,10.332c-0.121,0.02-0.243,0.028-0.363,0.028
					C383.915,1039.468,383.352,1039.245,382.928,1038.839z M438.289,1022.672c-14.616-10.768-24.976-26.427-29.173-44.09
					l-10.345-43.541l-23.516,6.955l11.979,45.418c2.591,9.824,3.267,19.918,2.005,30l-2.136,17.091l55.056-8.98L438.289,1022.672z"
					/>
			</g>
			<g>
				<g>
					<path fill="#5479F7" d="M378.329,1047.033c-0.476-8.39-0.593-25.101,4.879-35.577c0.975-1.865,3.223-2.668,5.176-1.889
						l14.486,5.797c2.249,0.899,4.696-0.756,4.696-3.18v-0.987c0-1.404,1.099-2.562,2.501-2.635l12.481-0.653
						c4.656-0.244,9.297,0.636,13.553,2.543c12.905,5.786,40.313,19.45,46.865,33.734c1.489,3.248-0.93,6.957-4.499,7.117
						c-11.315,0.508-39.939,1.406-94.673,0.938C380.885,1052.219,378.494,1049.94,378.329,1047.033z"/>
					<path d="M383.777,1054.496c-4.085-0.035-7.467-3.257-7.699-7.336l0,0c-0.517-9.067-0.533-25.899,5.133-36.747
						c1.508-2.896,4.946-4.159,8.009-2.937l14.486,5.795c0.504,0.202,0.899,0.012,1.091-0.117c0.192-0.13,0.516-0.429,0.516-0.97
						v-0.987c0-2.604,2.036-4.749,4.635-4.887l12.481-0.651c4.973-0.254,10.021,0.688,14.592,2.734
						c15.05,6.749,41.295,20.249,47.994,34.854c0.991,2.165,0.836,4.685-0.422,6.742c-1.295,2.123-3.546,3.456-6.024,3.566
						c-9.78,0.439-30.018,1.071-65.363,1.071C404.365,1054.629,394.579,1054.59,383.777,1054.496z M422.664,1010.159l-12.479,0.654
						c-0.204,0.011-0.364,0.179-0.364,0.384v0.987c0,1.888-0.934,3.644-2.495,4.702c-1.563,1.06-3.538,1.271-5.293,0.568
						l-14.487-5.794c-0.882-0.35-1.909,0.014-2.34,0.837c-5.357,10.26-5.021,27.479-4.628,34.407
						c0.098,1.714,1.521,3.069,3.237,3.083c53.892,0.459,82.372-0.391,94.552-0.935c0.978-0.046,1.866-0.573,2.379-1.415
						c0.481-0.787,0.542-1.703,0.173-2.517c-6.311-13.756-34.09-27.393-45.739-32.616c-3.5-1.568-7.318-2.385-11.128-2.385
						C423.587,1010.123,423.127,1010.135,422.664,1010.159z"/>
				</g>
				<path d="M429.205,1044.992c26.313,0,38.901-1.421,39.077-1.44c1.236-0.146,2.122-1.265,1.977-2.5
					c-0.145-1.236-1.283-2.111-2.498-1.979c-0.253,0.028-25.679,2.888-80.291,0.392c-1.288-0.043-2.298,0.906-2.354,2.149
					c-0.058,1.241,0.904,2.297,2.147,2.354C403.881,1044.726,417.824,1044.992,429.205,1044.992z"/>
				<path d="M443.457,1031.536c0.733,0,1.454-0.358,1.887-1.02c0.684-1.04,0.394-2.438-0.649-3.12l-21.545-14.128
					c-1.036-0.683-2.439-0.394-3.119,0.647c-0.683,1.043-0.394,2.438,0.649,3.12l21.544,14.13
					C442.603,1031.416,443.033,1031.536,443.457,1031.536z"/>
			</g>
		</g>
		<g>
			<g>
				<polygon fill="#FFFFFF" points="244.204,948.488 236.546,1002.237 217.169,1002.237 219.052,949.375 				"/>
				<path d="M215.547,1003.802c-0.425-0.438-0.653-1.033-0.632-1.646l1.886-52.864c0.042-1.181,0.991-2.13,2.172-2.172l25.151-0.884
					c0.656-0.017,1.306,0.247,1.753,0.744c0.447,0.495,0.652,1.165,0.559,1.823l-7.658,53.751c-0.159,1.11-1.107,1.936-2.23,1.936
					h-19.379C216.555,1004.491,215.971,1004.244,215.547,1003.802z M241.592,950.837l-20.362,0.717l-1.728,48.432h15.087
					L241.592,950.837z"/>
			</g>
			<g>
				<g>
					<path fill="#5479F7" d="M235.805,1052.259c-7.93,0.85-19.05,2.876-36.025,0.162c-4.967-0.793-8.098-5.792-6.736-10.636
						c3.59-12.762,11.105-36.321,20.617-48.669c0.689-0.896,2.098-0.65,2.464,0.418l0.338,2.22c0.204,1.33,2.007,1.596,2.581,0.378
						l2.097-4.438c0.492-0.819,1.346-1.357,2.299-1.446l7.357-0.281c1.56-0.146,2.97,0.931,3.242,2.472l0.253,3.5
						c0.098,1.359,1.91,1.75,2.56,0.552l3.172-3.257c0.643-0.874,2.025-0.397,1.997,0.688l-0.377,13.968
						c-0.272,10.09,0.458,20.182,2.184,30.129l0.869,5.001C245.149,1047.629,240.414,1051.764,235.805,1052.259z"/>
					<path d="M199.422,1054.644c-2.978-0.475-5.621-2.212-7.255-4.766c-1.649-2.582-2.121-5.756-1.292-8.702
						c3.668-13.046,11.274-36.813,20.999-49.438c0.825-1.069,2.166-1.594,3.499-1.376c1.283,0.211,2.351,1.08,2.828,2.282
						l0.903-1.914l0.107-0.198c0.856-1.429,2.359-2.374,4.143-2.538l7.232-0.271c2.697-0.262,5.201,1.644,5.673,4.321l0.136,1.688
						l1.934-1.986c0.886-1.075,2.34-1.495,3.676-1.033c1.396,0.478,2.308,1.792,2.269,3.27l-0.381,13.966
						c-0.264,9.92,0.458,19.906,2.156,29.685l0.868,5l0.022,0.166c0.587,5.968-5.266,11.1-10.895,11.702l0,0
						c-0.995,0.106-2.044,0.231-3.149,0.365c-4.429,0.531-9.793,1.174-16.41,1.174
						C211.539,1056.038,205.895,1055.678,199.422,1054.644z M241.606,1038.401c-1.748-10.069-2.494-20.356-2.217-30.577
						l0.298-11.017l-1.056,1.082c-0.825,1.209-2.291,1.796-3.743,1.484c-1.586-0.343-2.728-1.656-2.845-3.274l-0.241-3.344
						c-0.101-0.346-0.44-0.577-0.92-0.538l-7.233,0.271c-0.214,0.021-0.41,0.133-0.537,0.303l-2.031,4.3
						c-0.686,1.448-2.215,2.267-3.794,2.034c-1.573-0.229-2.793-1.433-3.047-2.998c-8.696,12.389-15.604,34.093-19.027,46.269
						c-0.481,1.713-0.208,3.556,0.751,5.055c0.956,1.492,2.435,2.467,4.17,2.741c14.509,2.323,24.749,1.093,32.223,0.196
						c1.125-0.137,2.192-0.265,3.208-0.371h0.002c3.359-0.36,7.154-3.422,6.893-6.707L241.606,1038.401z"/>
				</g>
				<path d="M219.277,1046.041c9.649,0,15.642-2.227,16.013-2.367c1.162-0.443,1.747-1.745,1.3-2.908
					c-0.443-1.164-1.744-1.743-2.905-1.304c-0.214,0.079-12.712,4.614-30.553-0.072c-1.198-0.315-2.434,0.404-2.753,1.606
					c-0.315,1.202,0.405,2.438,1.609,2.752C208.521,1045.467,214.373,1046.041,219.277,1046.041z"/>
				<path d="M210.292,1026.39h17.77c1.244,0,2.254-1.007,2.254-2.253c0-1.243-1.01-2.253-2.254-2.253h-17.77
					c-1.246,0-2.254,1.01-2.254,2.253C208.038,1025.385,209.046,1026.39,210.292,1026.39z"/>
			</g>
		</g>
		<g>
			<path fill="#5479F7" d="M369.344,594.834c0,0,25.411,164.121,26.421,203.313c1.012,39.194,17.314,157.787,17.314,157.787
				s-20.946,7.775-44.863,2.339c0,0-75.003-210.018-80.61-274.403c-5.604-64.385,13.137-93.859,13.137-93.859L369.344,594.834z"/>
			<path fill="#5479F7" d="M344.489,584.615c0,0-86.127,262.998-87.535,369.903c0,0-18.98,4.458-46.266,0
				c0,0-17.494-293.513,32.932-375.741L344.489,584.615z"/>
			<path d="M367.715,960.469c-0.751-0.173-1.364-0.715-1.624-1.44c-0.458-1.282-44.67-125.339-67.487-211.174
				c-25.598,95.648-38.85,165.165-39.396,206.692c-0.013,1.036-0.731,1.931-1.74,2.165c-0.792,0.187-19.73,4.511-47.145,0.03
				c-1.039-0.171-1.823-1.039-1.884-2.092c-0.717-12.013-16.96-295.163,33.26-377.053c0.434-0.707,1.211-1.132,2.05-1.071
				l100.872,5.839c0.698,0.04,1.336,0.402,1.73,0.979c0.395,0.579,0.498,1.307,0.279,1.972c-0.001,0.002-0.635,1.939-1.79,5.533
				l24.661,1.733c1.05,0.074,1.907,0.863,2.068,1.904c0.256,1.643,25.443,164.713,26.447,203.601
				c0.994,38.62,17.133,156.354,17.296,157.538c0.145,1.047-0.46,2.053-1.451,2.42c-0.646,0.24-12.163,4.426-27.875,4.426
				C380.337,962.471,374.142,961.928,367.715,960.469z M393.512,798.209c-0.94-36.418-23.37-183.35-26.121-201.255l-25.732-1.808
				c-0.69-0.049-1.317-0.412-1.708-0.986c-0.388-0.57-0.491-1.291-0.28-1.948c0.735-2.298,1.333-4.148,1.774-5.517l-96.597-5.591
				c-46.61,78.841-33.347,346.763-32.011,371.472c20.996,3.171,36.842,0.982,41.896,0.082
				c0.932-43.297,14.967-115.337,41.728-214.182c0.266-0.986,1.1-1.692,2.192-1.664c1.023,0.007,1.912,0.7,2.168,1.692
				c20.891,81.358,64.357,204.477,69.098,217.831c18.641,3.902,35.409-0.362,40.677-1.962
				C408.515,939.073,394.444,834.38,393.512,798.209z"/>
		</g>
	</g>
	<g>
		<path d="M384.252,251.71c-13.219-14.307-32.872-17.315-47.646-13.281c-18.692,5.104-28.12,21.279-34.768,32.686
			c-11.753,20.164-6.077,27.465-15.316,39.178c-16.358,20.744-51.735-16.776-95.232,8.297
			c-33.098,19.079-58.234,124.728,7.724,147.087c32.116,10.887,74.902,14.531,107.111,4.247
			c30.729-9.814,69.182-36.065,74.685-72.055c4.551-29.761-15.059-54.52,1.351-79.465c4.18-6.353,7.643-8.077,10.747-16.02
			C397.948,289.483,399.082,267.76,384.252,251.71z"/>
		<path d="M338.775,249.624c7.022-5.697,2.579-22.5-1.917-31.565c-1.684-3.397-9.223-18.6-19.135-18.009
			c-10.184,0.606-19.934,17.699-16.3,31.239C305.968,248.217,330.545,256.3,338.775,249.624z"/>
	</g>
	<g>
		<g>
			<path d="M558.03,399.464c0.664,0,1.324-0.293,1.767-0.854l93.177-117.68c0.771-0.977,0.607-2.394-0.367-3.164
				c-0.977-0.775-2.394-0.608-3.166,0.367l-93.175,117.681c-0.773,0.976-0.61,2.394,0.37,3.165
				C557.046,399.306,557.542,399.464,558.03,399.464z"/>
			<g>
				<g>
					<path fill="#FFFFFF" d="M597.346,376.123c-5.494,3.425-14.487,13.535-15.366,15.591c-6.913,16.221-20.689,0.253-20.689,0.253
						s15.848-20.231,26.802-26.436C609.217,353.567,608.846,368.955,597.346,376.123z"/>
					<path d="M559.586,393.439c-0.703-0.814-0.733-2.014-0.068-2.861c0.657-0.842,16.248-20.657,27.462-27.008
						c13.432-7.604,18.048-4.354,19.603-1.738c2.63,4.425-1.054,11.848-8.045,16.204l-0.002,0.001
						c-5.201,3.241-13.74,12.964-14.481,14.561c-2.157,5.056-5.216,7.926-9.101,8.529c-0.496,0.077-0.989,0.113-1.481,0.113
						C566.403,401.24,559.878,393.779,559.586,393.439z M596.151,374.212c5.679-3.541,7.472-8.537,6.557-10.075
						c-0.764-1.293-4.996-1.462-13.506,3.355c-8.729,4.943-21.03,19.571-24.915,24.342c2.34,2.239,6.513,5.386,9.978,4.837
						c2.243-0.352,4.14-2.317,5.643-5.844c1.098-2.567,10.432-12.995,16.248-16.617L596.151,374.212z"/>
				</g>
				<g>
					<path fill="#FFFFFF" d="M571.976,366.077c-2.012,4.687-7.11,10.188-11.411,12.928c-1.863,1.188-3.931,2.273-6.081,2.997
						c-16.946,5.705-4.033,27.827-37.567,46.927c-1.178,0.67,5.17,22.849,7.347,28.42c12.229-11.728,26.335-32.713,36.39-33.634
						c18.551-1.701,20.813-12.464,22.812-17.79c5.255-13.984-11.097-19.5-11.097-19.5s1.986-1.179,7.252-7.283
						C587.67,369.81,580.937,345.193,571.976,366.077z"/>
					<path d="M523.779,459.55c-0.732-0.161-1.34-0.68-1.614-1.379c-1.115-2.856-3.27-9.854-5.007-16.28
						c-3.681-13.597-2.901-14.038-1.354-14.92c18.477-10.524,22.222-21.834,25.233-30.923c2.378-7.185,4.435-13.39,12.729-16.182
						c1.766-0.594,3.646-1.523,5.588-2.76c4.196-2.675,8.831-7.91,10.55-11.918c2.732-6.368,5.606-9.488,8.784-9.54
						c1.306-0.036,3.595,0.472,5.235,3.979c2.581,5.514,2.146,15.488-2.598,20.989c-2.053,2.379-3.638,4.049-4.829,5.213
						c2.874,1.553,6.834,4.35,8.896,8.694c1.763,3.717,1.827,7.82,0.181,12.195c-0.149,0.401-0.305,0.836-0.465,1.295
						c-1.994,5.678-5.708,16.245-24.249,17.945c-5.983,0.549-15,10.848-22.952,19.932c-4.01,4.581-8.154,9.316-12.085,13.084
						c-0.424,0.406-0.984,0.627-1.56,0.627C524.101,459.602,523.941,459.585,523.779,459.55z M578.762,360.155
						c-0.019,0-1.883,0.212-4.714,6.811h-0.003c-2.062,4.804-7.335,10.796-12.27,13.94c-2.25,1.433-4.46,2.52-6.57,3.231
						c-6.162,2.074-7.645,6.55-9.891,13.326c-3.025,9.139-7.152,21.592-26.236,32.817c0.461,3.665,3.821,15.955,6.123,22.948
						c3.05-3.151,6.225-6.776,9.315-10.308c9.333-10.665,18.153-20.738,25.934-21.453c15.658-1.435,18.516-9.567,20.406-14.949
						c0.174-0.492,0.336-0.956,0.498-1.387c1.211-3.225,1.205-6.058-0.022-8.659c-2.562-5.425-9.619-7.891-9.686-7.915
						c-0.818-0.276-1.389-1.007-1.497-1.863c-0.107-0.856,0.298-1.712,1.025-2.183c0.018-0.012,1.954-1.302,6.737-6.844
						c3.693-4.28,3.607-12.545,1.929-16.135C579.348,360.479,578.879,360.155,578.762,360.155L578.762,360.155z M518.017,430.887
						h0.016H518.017z"/>
				</g>
				<path d="M565.154,410.998c0.363,0,0.743-0.018,1.134-0.054c1.239-0.116,2.15-1.215,2.033-2.453
					c-0.115-1.238-1.227-2.167-2.453-2.034c-1.891,0.172-3.258-0.33-4.218-1.543c-1.756-2.221-2.024-6.604-0.653-10.657
					c1.061-3.132,2.697-5.117,4.867-5.903c4.313-1.567,9.688,1.679,9.74,1.711c1.059,0.646,2.448,0.318,3.1-0.74
					c0.65-1.057,0.325-2.443-0.732-3.095c-0.292-0.183-7.242-4.414-13.617-2.123c-3.536,1.271-6.102,4.202-7.627,8.708
					c-1.891,5.591-1.346,11.438,1.387,14.896C559.336,409.254,561.521,410.998,565.154,410.998z"/>
			</g>
		</g>
		<g>
			<path fill="#FFFFFF" d="M372.209,452.696c-9.092-53.079-17.116-99.896-17.116-99.896s22.295-2.357,33.939,10.552
				c11.646,12.911,56.32,66.679,99.572,62.113c19.674-2.076,31.013-7.699,36.949-10.682l20.146,29.002
				c-5.719,8.975-22.721,29.327-50.115,42.069c-54.786,25.482-97.618-14.037-97.618-14.037L372.209,452.696z"/>
			<path d="M396.54,473.565l-25.673-19.06c-0.465-0.345-0.779-0.857-0.878-1.431l-17.116-99.896
				c-0.106-0.613,0.049-1.242,0.424-1.74c0.376-0.496,0.94-0.815,1.561-0.88c0.961-0.103,23.577-2.325,35.851,11.282
				c0.702,0.78,1.525,1.707,2.457,2.762c13.776,15.528,55.694,62.826,95.206,58.62c19.46-2.054,30.748-7.729,36.172-10.454
				c1.003-0.508,2.225-0.195,2.863,0.728l20.146,29.003c0.518,0.746,0.537,1.73,0.048,2.497c-1.776,2.785-18.292,27.656-51.064,42.9
				c-13.575,6.313-26.46,8.702-38.2,8.701C423.178,496.594,398.345,475.171,396.54,473.565z M524.817,417.669
				c-6.19,3.047-17.593,8.098-35.975,10.038c-1.807,0.19-3.609,0.281-5.417,0.281c-40.054-0.005-80.086-45.125-93.632-60.395
				c-0.925-1.044-1.738-1.961-2.436-2.731c-8.563-9.498-23.744-10.118-29.616-9.949l16.537,96.514l25.032,18.582
				c0.063,0.047,0.125,0.098,0.184,0.15c0.417,0.386,42.413,38.178,95.14,13.651c28.725-13.36,44.434-34.276,48.343-39.994
				L524.817,417.669z M372.196,452.696h0.014H372.196z"/>
		</g>
		<g>
			<path fill="#99B9FF" d="M288.196,348.882c0,0-29.681-4.989-58.939,65.189c-19.552,46.9-18.931,99.791,1.257,146.422
				c6.297,14.544,11.928,26.865,14.426,30.55c15.419,22.722,64.221,24.718,91.987,21.655c13.612-1.501,24.111-12.676,24.81-26.354
				l7.765-152.063l20.562,0.074l1.867-37.932c0.17-3.451-3.127-19.392-5.114-23.006c-6.549-11.926-19.509-26.728-47.554-25.803
				L288.196,348.882z"/>
			<path d="M243.075,592.307c-2.31-3.401-7.093-13.517-14.631-30.92c-20.409-47.145-20.872-101.153-1.267-148.185
				c28.543-68.47,57.924-66.968,61.144-66.58l50.865-1.262c22.749-0.775,39.367,8.328,49.604,26.971
				c2.142,3.896,5.586,20.257,5.392,24.2l-1.867,37.935c-0.059,1.201-1.049,2.144-2.25,2.144c-0.004,0-0.006,0-0.008,0l-18.415-0.07
				l-7.652,149.919c-0.76,14.872-12.036,26.85-26.814,28.479c-6.266,0.691-13.764,1.15-21.792,1.15
				C288.538,616.089,255.738,610.968,243.075,592.307z M369.51,432.026l18.409,0.069l1.76-35.784
				c0.155-3.144-3.129-18.698-4.837-21.811c-9.355-17.032-24.686-25.319-45.523-24.634l-51.065,1.267
				c-0.138,0.003-0.283-0.007-0.408-0.027c-0.279-0.048-28.483-3.391-56.507,63.831c-19.139,45.905-18.685,98.631,1.245,144.659
				c9.115,21.056,12.766,28.034,14.222,30.181c15.278,22.513,65.47,23.372,89.877,20.68c12.565-1.385,22.16-11.573,22.805-24.228
				l7.763-152.063c0.063-1.198,1.051-2.14,2.252-2.14C369.502,432.026,369.505,432.026,369.51,432.026z"/>
		</g>
		<path fill="#FFFFFF" d="M373.173,836.314c17.45-3.973,29.603-19.804,28.93-37.688l-10.962-123.386
			c-1.362-15.344-1.735-30.754-1.101-46.145c1.249-30.252,3.795-74.776,4.112-85.893l3.812-155.893
			c0.001-0.1,0.001-0.196-0.004-0.295c-0.569-11.066-8.447-25.343-16.903-32.349c-2.382-1.974-5.139-3.767-8.312-5.181
			c-1.929-0.858-4.136,0.454-4.313,2.558c-1.742,20.723-10.127,117.642-22.201,212.875
			c-12.886,101.633-29.08,222.619-36.181,260.641c-1.267,6.783,2.968,13.377,9.67,15.018h0.002
			c10.994,2.693,22.468,2.786,33.507,0.274L373.173,836.314z"/>
		<path d="M337.033,845c5.377,0,10.75-0.597,15.987-1.788l20.652-4.7c17.769-4.044,34.535-20.609,30.643-40.32
			c-0.138-0.999-15.618-113.654-7.913-254.862l3.351-137.007c0.028-1.246-0.952-2.279-2.198-2.31
			c-1.252,0.026-2.279,0.953-2.31,2.197l-3.347,136.941c-7.728,141.601,7.813,254.663,7.972,255.788
			c3.393,17.181-11.481,31.6-27.198,35.177l-20.651,4.701c-10.18,2.317-20.919,2.229-31.062-0.256l-3.545-0.867
			c-3.979-0.975-6.479-4.895-5.685-8.925c6.88-34.981,23.487-159.086,36.735-263.564c12.239-96.537,20.785-195.973,22.305-214.104
			c3.175,1.283,6.14,3.063,8.848,5.306c2.518,2.084,11.156,11.485,13.516,14.889c0.708,1.022,2.113,1.275,3.136,0.568
			c1.021-0.708,1.278-2.112,0.567-3.135c-2.438-3.521-11.286-13.262-14.344-15.792c-3.911-3.241-8.307-5.627-13.063-7.09
			c-0.648-0.205-1.357-0.098-1.927,0.286c-0.565,0.384-0.926,1.002-0.981,1.684c-0.089,1.096-9.076,110.715-22.528,216.823
			c-12.632,99.626-29.819,228.353-36.684,263.262c-1.262,6.397,2.707,12.624,9.034,14.174l3.543,0.867
			C325.487,844.312,331.262,844.998,337.033,845z"/>
		<path d="M310.231,467.556c0.28,0,0.565-0.051,0.84-0.163c30.011-12.056,32.707-55.388,32.808-57.228
			c0.065-1.241-0.887-2.303-2.126-2.371c-1.237-0.112-2.306,0.886-2.377,2.125c-0.022,0.421-2.648,42.31-29.983,53.293
			c-1.157,0.463-1.716,1.774-1.251,2.931C308.494,467.022,309.338,467.556,310.231,467.556z"/>
		<g>
			<path fill="#FFFFFF" d="M285.093,343.368c0,0-31.805-1.285-55.587,34.389c-20.324,30.488-52.868,96.921-54.157,123.174
				c-2.19,44.558,38.916,52.461,37.564,66.642c-1.72,18.053-16.004,56.678-46.477,98.988
				c-25.096,34.846-38.039,112.384-34.806,114.964c21.807,17.41,56.392,52.579,104.139,57.494
				c8.822,0.907,17.104-4.417,19.911-12.914c11.215-33.951,42.604-132.441,61.134-225.076
				c16.042-80.224-9.484-203.034-11.251-213.384C301.023,361.058,285.093,343.368,285.093,343.368z"/>
			<path d="M235.54,841.26c-41.557-4.278-73.797-31.504-95.133-49.521c-3.631-3.065-7.062-5.962-10.181-8.453
				c-0.974-0.775-2.306-1.842-0.281-16.229c1.291-9.165,3.519-20.339,6.277-31.46c4.373-17.627,13.874-50.205,28.385-70.355
				c29.09-40.392,44.27-79.055,46.063-97.885c0.38-3.996-4.43-8.041-10.521-13.162c-11.347-9.541-28.495-23.961-27.05-53.375
				c1.307-26.619,33.48-92.732,54.533-124.314c24.206-36.312,56.199-35.436,57.551-35.391c0.605,0.026,1.178,0.294,1.583,0.745
				c0.67,0.743,16.421,18.485,21.017,45.404c0.125,0.729,0.369,2.021,0.709,3.816c16.458,87.338,20.198,162.057,10.531,210.39
				c-18.327,91.636-48.906,188.114-61.202,225.341c-2.913,8.818-10.972,14.564-20.055,14.564
				C237.029,841.377,236.284,841.338,235.54,841.26z M231.382,379.007c-20.293,30.443-52.531,96.563-53.783,122.034
				c-1.332,27.183,14.146,40.199,25.451,49.703c7.103,5.974,12.711,10.689,12.108,17.042c-1.85,19.414-17.314,59.019-46.895,100.094
				c-23.759,32.989-36.274,104.417-34.809,112.219c3.054,2.45,6.365,5.245,9.86,8.198c22.163,18.714,52.514,44.346,92.685,48.479
				c7.869,0.796,15.064-3.872,17.542-11.38c12.272-37.147,42.785-133.416,61.063-224.81c9.556-47.78,5.811-121.888-10.543-208.671
				c-0.346-1.834-0.594-3.149-0.719-3.893c-3.857-22.591-16.318-38.796-19.288-42.396
				C278.714,345.789,251.932,348.181,231.382,379.007z"/>
		</g>
		<g>
			<g>
				<path fill="#5479F7" d="M427.792,426.984h-98.836c-3.117,0-6.069,2.615-6.592,5.843L299.93,571.299
					c-0.522,3.227,1.582,5.842,4.699,5.842h98.835c3.118,0,6.069-2.616,6.592-5.842l22.434-138.472
					C433.013,429.599,430.909,426.984,427.792,426.984z"/>
				<path d="M299.279,576.99c-1.362-1.603-1.936-3.808-1.574-6.052l22.433-138.471c0.702-4.339,4.574-7.738,8.815-7.738h98.836
					c2.13,0,4.029,0.854,5.352,2.408c1.362,1.602,1.934,3.807,1.57,6.049L412.28,571.658c-0.702,4.34-4.576,7.736-8.816,7.736
					h-98.835C302.5,579.394,300.6,578.541,299.279,576.99z M328.955,429.237c-2.02,0-4.021,1.81-4.367,3.949l-22.433,138.472
					c-0.155,0.951,0.044,1.807,0.557,2.409c0.458,0.537,1.12,0.82,1.917,0.82h98.835c2.021,0,4.022-1.81,4.368-3.949l22.433-138.473
					c0.153-0.949-0.043-1.805-0.557-2.406c-0.458-0.538-1.12-0.822-1.918-0.822H328.955L328.955,429.237z"/>
			</g>
			<g>
				<path fill="#CADDFF" d="M402.442,417.47h-41.736c-1.316,0-2.563,1.104-2.782,2.467l-3.21,17.781
					c-0.221,1.361,0.668,2.467,1.983,2.467h41.736c1.315,0,2.563-1.105,2.784-2.467l3.21-17.781
					C404.647,418.574,403.759,417.47,402.442,417.47z"/>
				<path d="M353.446,440.966c-0.825-0.969-1.173-2.282-0.952-3.648l3.205-17.74c0.397-2.446,2.598-4.361,5.007-4.361h41.736
					c1.27,0,2.453,0.539,3.25,1.478c0.824,0.967,1.172,2.283,0.95,3.646l-3.202,17.739c-0.396,2.447-2.597,4.362-5.008,4.362
					h-41.734C355.429,442.439,354.244,441.902,353.446,440.966z M360.706,419.723c-0.175,0-0.509,0.269-0.564,0.614l-3.171,17.594
					h41.462c0.175,0,0.51-0.27,0.564-0.614l3.171-17.594H360.706L360.706,419.723z M402.442,419.723c0.001,0,0.001,0,0.002,0
					l-0.002-2.253V419.723z"/>
			</g>
			<g>
				<path fill="#FFFFFF" d="M315.058,478.366l-2.41,15.117c-0.12,4.759,4.166,8.425,8.848,7.574l25.762-4.683
					c3.97-0.72,7.642,2.431,7.411,6.454c-0.133,2.296-1.163,4.958-4.015,7.73c-1.33,1.293-24.189,18.706-41.75,15.546
					c-0.765-0.139-15.856,9.654-17.848,8.662c-3.037-1.51-6.32-10.326-6.935-15.643c-0.052-0.459,13.833-7.329,15.215-11.563
					c1.427-4.375,0.954-7.437,2.003-15.029C303.084,479.896,315.058,478.366,315.058,478.366z"/>
				<path d="M290.053,536.785c-4.292-2.135-7.602-12.464-8.17-17.4c-0.181-1.584,0.63-2.061,3.654-3.838
					c2.701-1.59,10.921-6.423,11.659-8.684c0.781-2.393,0.932-4.334,1.159-7.274c0.146-1.916,0.331-4.302,0.753-7.363
					c1.568-11.347,10.934-15.49,15.665-16.094c0.707-0.092,1.413,0.156,1.905,0.667c0.494,0.509,0.719,1.223,0.606,1.923
					l-2.386,14.957c0.003,1.537,0.668,2.982,1.84,3.985c1.207,1.03,2.794,1.458,4.354,1.178l25.764-4.684
					c2.607-0.472,5.241,0.262,7.226,2.021c1.95,1.726,2.984,4.196,2.836,6.779c-0.188,3.271-1.767,6.374-4.69,9.217
					c-0.207,0.2-23.839,19.213-43.093,16.253c-0.767,0.388-2.377,1.313-3.824,2.147c-8.406,4.834-11.843,6.524-13.888,6.524
					C290.893,537.099,290.457,536.986,290.053,536.785z M291.401,532.586L291.401,532.586L291.401,532.586z M309.305,523.885
					c15.808,2.833,37.439-12.743,39.779-14.942c2.09-2.033,3.212-4.134,3.335-6.244c0.067-1.194-0.413-2.341-1.323-3.146
					c-0.944-0.835-2.196-1.184-3.434-0.962l-25.762,4.684c-2.896,0.529-5.852-0.269-8.093-2.188
					c-2.242-1.917-3.485-4.71-3.413-7.659c0.002-0.101,0.01-0.2,0.027-0.299l1.854-11.629c-3.153,1.299-7.741,4.363-8.704,11.339
					c-0.405,2.929-0.577,5.143-0.726,7.096c-0.236,3.027-0.419,5.419-1.367,8.325c-1.17,3.582-7.389,7.481-13.658,11.169
					c-0.427,0.251-0.881,0.518-1.266,0.751c0.884,4.997,3.513,10.936,5.174,12.342c2.078-0.533,8.498-4.225,11.332-5.855
					c3.958-2.275,4.919-2.83,5.769-2.83C308.986,523.838,309.137,523.857,309.305,523.885z M285.631,520.752h0.013H285.631z"/>
			</g>
		</g>
		<path d="M236.54,656.209c28.629,0,46.071-24.867,46.292-25.193c0.701-1.025,0.439-2.428-0.586-3.13
			c-1.023-0.701-2.429-0.442-3.132,0.582c-1.078,1.567-26.826,38.101-67.649,16.489c-1.097-0.578-2.462-0.16-3.047,0.938
			c-0.58,1.101-0.161,2.465,0.938,3.048C219.238,654.173,228.348,656.209,236.54,656.209z"/>
		<g>
			<path fill="#FFFFFF" d="M204.811,555.1c3.848,3.573,10.446,8.521,16.768,10.72c33.7,11.721,65.798-16.137,75.768-28.421
				c2.276-2.807-7.822-27.113-11.065-26.585c-10.141,1.648-29.073,7.877-39.706-11.102c-9.484-16.929,6.595-79.734,6.595-79.734
				L204.811,555.1z"/>
			<path d="M238.126,570.86c28.165,0,52.708-21.858,60.969-32.04c3.456-4.261-5.645-22.502-7.061-24.95
				c-2.361-4.071-4.141-5.605-6.113-5.279c-1.124,0.182-2.353,0.42-3.667,0.674c-10.563,2.043-25.032,4.842-33.714-10.654
				c-7.417-13.235,2.405-60.845,6.813-78.071c0.309-1.206-0.419-2.434-1.625-2.742c-1.205-0.314-2.432,0.418-2.74,1.625
				c-0.666,2.601-16.193,63.881-6.38,81.394c10.272,18.334,27.942,14.92,38.501,12.875c1.05-0.203,2.04-0.394,2.968-0.556
				c2.981,2.639,9.886,19.571,9.348,23.055c-9.569,11.658-40.817,38.739-73.107,27.503c-5.83-2.027-12.073-6.62-15.974-10.243
				c-0.91-0.846-2.34-0.794-3.185,0.12c-0.847,0.91-0.795,2.335,0.119,3.183c4.235,3.937,11.073,8.943,17.56,11.2
				C226.678,569.98,232.475,570.86,238.126,570.86z"/>
		</g>
		<path d="M382.462,658.966c0.646,0,1.3-0.021,1.97-0.058c1.243-0.069,2.19-1.135,2.123-2.378c-0.072-1.241-1.114-2.161-2.378-2.123
			c-24.666,1.397-32.057-28.364-32.128-28.666c-0.287-1.211-1.501-1.966-2.715-1.67c-1.209,0.289-1.957,1.504-1.67,2.716
			C347.744,627.114,355.646,658.966,382.462,658.966z"/>
	</g>
	<g>
		<path fill="#FFFFFF" d="M335.64,291.23c0.977,0.584,2.253,0.095,2.683-0.958c2.055-5.061,5.347-14.75,12.046-16.296
			c8.624-1.99,22.585-4.563,23.787,2.257c1.05,5.977-0.188,16.291,6.104,23.765c0.602,0.716,0.082,1.863-0.663,2.427l-3.96,3.341
			c-0.835,0.632-1.549,2.763-1.651,3.813c-0.316,3.243-3.646,14.526-4.768,15.416c-2.185,1.735-13.091,1.063-13.091,1.063
			l-5.825,25.693c-0.185,0.623,2.409,3.354,4.799,5.708c2.292,2.253,1.581,6.087-1.345,7.417c-4.437,2.016-12.35,3.91-26.028,2.984
			c-8.658-0.586-16.111-4.033-21.28-7.214c-3.177-1.956-2.843-6.722,0.604-8.148c9.924-4.106,25.645-14.626,28.601-40.495
			c0.096-0.843-0.269-1.677-0.943-2.184c-2.588-1.945-9.561-7.675-8.34-13.485C327.665,290.159,332.281,289.224,335.64,291.23z"/>
		<path d="M327.573,370.105c-9.339-0.632-17.285-4.451-22.306-7.542c-2.209-1.359-3.453-3.813-3.247-6.405
			c0.206-2.563,1.804-4.765,4.17-5.744c8.938-3.702,24.364-13.646,27.164-38.794c-4.03-3.027-10.586-9.102-9.191-15.752
			c0.74-3.52,2.569-6.083,5.151-7.212c2.215-0.971,4.764-0.819,7.065,0.405l0.386-0.968c2.311-5.827,5.799-14.63,13.098-16.314
			c12.382-2.855,19.653-2.972,23.57-0.377c1.598,1.058,2.614,2.593,2.94,4.441c0.285,1.616,0.41,3.473,0.543,5.438
			c0.368,5.45,0.826,12.229,5.067,17.269c0.604,0.72,0.876,1.648,0.767,2.614c-0.132,1.164-0.804,2.308-1.703,2.982l-3.976,3.348
			c-0.298,0.332-0.782,1.645-0.846,2.303c-0.229,2.354-3.461,15.256-5.611,16.963c-2.155,1.714-8.259,1.821-12.713,1.643
			l-5.246,23.126c0.398,0.536,1.431,1.77,4.023,4.322c1.598,1.57,2.315,3.826,1.927,6.03c-0.394,2.223-1.859,4.107-3.923,5.043
			c-5.021,2.283-11.749,3.433-20.062,3.433C332.389,370.356,330.037,370.273,327.573,370.105z M356.264,323.805
			c4.923,0.301,10.103,0.057,11.404-0.502c1.001-1.843,3.786-11.011,4.071-13.944c0.116-1.175,0.913-4.163,2.444-5.317l3.831-3.233
			c-4.704-6.043-5.197-13.33-5.595-19.224c-0.123-1.841-0.242-3.581-0.485-4.962c-0.111-0.634-0.416-1.084-0.99-1.464
			c-2.688-1.781-9.438-1.439-20.067,1.012c-4.991,1.152-8.077,8.934-9.921,13.581l-0.546,1.367c-0.461,1.135-1.393,2.011-2.557,2.4
			c-1.134,0.382-2.357,0.249-3.37-0.354l0,0c-1.136-0.683-2.358-0.816-3.361-0.381c-1.228,0.539-2.108,1.925-2.548,4.01
			c-0.939,4.487,5.494,9.725,7.487,11.222c1.316,0.985,2.016,2.612,1.829,4.241c-3.12,27.318-20.119,38.241-29.977,42.322
			c-1.162,0.481-1.366,1.516-1.401,1.94c-0.071,0.905,0.346,1.731,1.117,2.206c4.589,2.825,11.829,6.313,20.25,6.886
			c13.527,0.908,21.031-1.009,24.943-2.788c0.72-0.328,1.209-0.957,1.347-1.729c0.134-0.753-0.104-1.493-0.649-2.031
			c-5.115-5.036-5.831-6.4-5.418-7.813l5.827-25.694c0.233-1.032,1.152-1.756,2.197-1.756
			C356.171,323.802,356.218,323.802,356.264,323.805z M352.463,352.377c0.024-0.083,0.043-0.166,0.056-0.244L352.463,352.377z
			 M336.795,289.295L336.795,289.295L336.795,289.295L336.795,289.295z"/>
	</g>
</g>
</svg>
